<?xml version="1.0" standalone="no"?>
<!DOCTYPE svg PUBLIC "-//W3C//DTD SVG 20010904//EN"
 "http://www.w3.org/TR/2001/REC-SVG-20010904/DTD/svg10.dtd">
<svg version="1.0" xmlns="http://www.w3.org/2000/svg"
 width="300.000000pt" height="300.000000pt" viewBox="0 0 300.000000 300.000000"
 preserveAspectRatio="xMidYMid meet">
<metadata>
Created by potrace 1.10, written by Peter Selinger 2001-2011
</metadata>
<g transform="translate(0.000000,300.000000) scale(0.100000,-0.100000)"
fill="#000000" stroke="none">
<path d="M1061 2173 c-405 -3 -527 -6 -533 -16 -4 -6 -8 -26 -8 -44 0 -35 -17
-53 -31 -32 -4 7 -11 31 -14 51 l-7 38 -129 0 -129 0 0 -24 c0 -13 -6 -61 -14
-107 -8 -46 -27 -161 -42 -254 l-27 -171 40 -119 40 -120 125 -3 125 -3 7 32
c10 51 7 117 -4 99 -5 -8 -10 -25 -10 -37 0 -13 -4 -23 -10 -23 -5 0 -10 -7
-10 -15 0 -13 -15 -15 -96 -13 l-96 3 -29 85 c-35 101 -35 104 -8 90 18 -10
106 -9 164 1 23 5 33 23 34 61 1 15 6 50 12 78 l11 50 28 -22 c25 -20 29 -30
30 -78 1 -51 27 -139 29 -98 1 14 6 16 24 10 44 -15 184 -3 197 17 5 10 12 7
24 -10 9 -13 16 -18 16 -11 0 9 7 11 23 6 12 -4 36 -6 54 -5 l31 2 -5 -83 c-3
-46 -8 -86 -12 -90 -3 -4 -24 -10 -46 -13 -22 -3 -45 -8 -52 -10 -7 -2 -15 0
-19 6 -3 6 -42 10 -87 9 -45 -1 -87 -1 -94 -1 -6 1 -17 26 -24 57 -9 39 -15
51 -19 39 -6 -17 -7 -17 -13 -2 -3 9 -11 17 -17 17 -7 0 -8 -6 -1 -17 5 -10
15 -44 22 -77 l13 -58 168 4 168 4 -1 -45 c0 -25 -6 -100 -13 -167 -11 -110
-10 -130 9 -235 l20 -114 131 -3 132 -3 7 58 6 58 101 -2 c77 -1 98 1 89 10
-16 16 -149 21 -183 8 -20 -7 -28 -18 -28 -35 0 -13 -6 -35 -13 -48 -12 -23
-19 -25 -94 -27 -108 -3 -124 11 -129 111 -2 38 -7 74 -11 81 -4 7 5 4 21 -6
23 -15 39 -17 92 -12 35 4 67 11 70 16 9 16 24 10 24 -10 0 -41 18 -29 25 17
13 96 25 115 40 70 8 -22 8 -21 12 7 4 29 5 30 63 30 57 0 59 -1 65 -30 l7
-30 8 25 c8 24 8 24 9 -6 1 -37 40 -131 41 -98 0 27 10 36 25 24 17 -14 138
-15 163 -1 21 11 22 10 22 -31 0 -24 4 -58 10 -77 5 -19 6 -39 2 -45 -4 -6 -7
-15 -7 -21 0 -10 -161 -17 -195 -8 -13 3 -17 13 -16 34 2 32 -11 49 -24 30 -4
-7 -6 -29 -5 -49 l3 -37 131 -3 131 -3 0 287 c0 158 3 284 7 280 10 -10 10 4
11 -298 l2 -268 259 0 259 0 21 112 c20 105 21 166 6 263 -2 11 -4 22 -4 25
-1 3 -59 4 -131 2 -112 -3 -130 -1 -130 12 0 14 17 16 104 16 l104 0 12 70 12
70 332 0 332 0 38 118 39 119 -29 181 c-20 133 -32 182 -42 182 -9 0 -11 7 -7
23 10 30 10 23 1 105 l-8 72 -602 -2 c-330 -2 -837 -4 -1125 -5z m1189 -55 c0
-19 -2 -20 -10 -8 -8 11 -9 7 -4 -15 4 -16 10 -32 14 -35 6 -4 50 -431 45
-438 -1 -1 -106 1 -232 4 l-231 7 -6 166 c-3 91 -8 187 -11 214 -2 26 0 47 5
47 6 0 10 12 10 28 0 21 -2 24 -10 12 -8 -12 -10 -11 -10 8 0 21 3 22 95 22
l95 0 -4 -107 c-3 -76 -2 -91 3 -53 l8 55 1 -45 c1 -25 5 -90 9 -144 5 -74 3
-97 -5 -92 -7 4 -12 1 -12 -6 0 -9 16 -13 55 -13 49 0 71 8 46 17 -10 3 -32
214 -29 278 1 33 1 32 8 -10 l7 -45 1 41 c1 22 -2 44 -7 50 -5 5 -12 23 -16
41 l-6 32 88 4 c48 1 91 4 96 5 4 1 7 -8 7 -20z m495 3 c-3 -7 -1 -19 4 -25 5
-6 11 -22 13 -35 l3 -24 -130 2 c-71 1 -133 5 -139 8 -12 8 3 -68 17 -85 8
-10 8 -15 0 -20 -6 -4 51 -6 127 -4 l139 3 5 -33 c3 -18 13 -78 21 -133 9 -55
18 -112 21 -127 l6 -28 -236 0 -236 0 0 33 c0 17 -3 42 -6 55 l-7 23 146 -3
c132 -3 144 -2 131 13 -8 8 -14 27 -14 41 0 53 -1 53 -139 50 l-129 -3 -7 88
c-4 48 -11 110 -15 136 -6 42 -5 47 9 43 13 -5 13 -4 -1 8 -10 7 -18 17 -18
22 0 5 98 9 220 9 183 0 219 -2 215 -14z m-2305 -2 c0 -7 -6 -17 -14 -23 -8
-6 -17 -29 -21 -51 -5 -32 -4 -38 6 -27 15 14 79 16 79 2 0 -5 -4 -10 -9 -10
-4 0 -7 -12 -4 -27 3 -23 2 -25 -5 -8 -8 17 -10 15 -13 -15 l-4 -35 53 0 54 0
-5 46 c-3 26 -3 72 0 103 l6 56 93 0 c79 0 94 -3 94 -16 0 -8 -4 -12 -10 -9
-6 4 -8 -17 -5 -57 3 -51 2 -56 -5 -28 -7 26 -8 17 -4 -40 4 -64 -10 -284 -21
-345 -4 -18 -12 -20 -104 -20 -85 0 -100 2 -97 15 3 8 7 46 11 84 l7 69 -32
-5 -32 -5 6 54 6 53 -29 0 c-16 0 -36 2 -44 5 -8 4 -14 0 -14 -9 0 -8 4 -13 9
-10 4 3 8 -4 8 -15 0 -20 -16 -149 -26 -208 l-5 -33 -100 1 -100 1 5 26 c3 15
22 132 42 260 l37 232 94 0 c63 0 93 -4 93 -11z m810 -39 l0 -50 -132 -1 c-73
-1 -136 -1 -140 0 -3 0 -8 -23 -10 -52 l-3 -52 65 2 c36 2 98 4 138 6 l72 3 0
-54 0 -53 -140 3 c-110 2 -140 0 -140 -10 0 -7 5 -10 10 -7 15 9 12 -48 -4
-70 -13 -20 -11 -20 130 -17 l144 3 -2 -55 -3 -55 -233 -3 c-201 -3 -232 -1
-232 12 0 8 7 92 15 185 8 94 15 183 15 198 0 16 3 26 8 24 4 -3 5 17 4 44
l-4 49 221 0 221 0 0 -50z m250 -25 l0 -76 40 3 c22 1 40 6 40 10 0 4 -4 8
-10 8 -6 0 -10 28 -10 65 l0 65 95 0 95 0 -1 -57 c-1 -48 -3 -53 -9 -28 l-8
30 -1 -32 c0 -17 3 -33 7 -35 5 -1 12 -20 15 -41 l6 -39 -73 4 -74 3 0 -34 c0
-19 3 -30 7 -25 3 5 36 9 73 10 l67 1 3 -126 c2 -69 3 -127 2 -129 -1 -1 -46
-3 -100 -5 l-99 -2 -3 64 c-2 50 1 68 15 84 17 20 17 20 0 14 -10 -4 -32 -7
-47 -7 l-29 0 -3 -77 -3 -78 -98 -3 -98 -3 2 128 c1 70 3 130 4 133 2 3 36 3
77 0 l73 -5 0 37 c1 25 -2 35 -9 28 -6 -6 -38 -10 -73 -10 l-63 0 2 88 c1 72
2 79 8 42 l7 -45 1 48 c1 26 -2 47 -8 47 -5 0 -10 5 -10 10 0 6 38 10 95 10
l95 0 0 -75z m-206 -137 c5 -12 4 -18 -4 -18 -6 0 -14 9 -17 20 -9 35 -54 50
-153 50 -53 0 -90 4 -90 10 0 10 51 14 136 10 26 -1 53 6 75 19 l34 21 6 -48
c3 -26 9 -55 13 -64z m1486 72 c0 -13 -3 -13 -182 -10 -21 0 -38 5 -38 10 0 6
43 10 110 10 67 0 110 -4 110 -10z m-315 -192 c128 -4 133 -22 6 -26 -76 -2
-100 -7 -123 -23 -16 -12 -31 -20 -32 -18 -6 7 -13 98 -8 103 2 3 16 -4 31
-15 21 -15 45 -19 126 -21z m-1187 -27 l-3 -49 -27 19 c-22 16 -45 20 -123 21
-87 1 -118 9 -100 26 3 3 47 5 96 4 64 -1 98 2 117 13 40 22 43 19 40 -34z
m24 -172 c6 20 29 -6 34 -40 5 -30 2 -36 -26 -51 -31 -18 -34 -22 -45 -71 -4
-22 -11 -28 -28 -25 -20 3 -23 10 -28 73 -3 42 -6 54 -7 31 l-2 -40 -28 27
c-22 21 -27 34 -24 59 3 31 6 33 45 33 23 0 45 -4 48 -8 4 -5 9 3 13 18 l7 27
18 -21 c11 -12 21 -17 23 -12z m1042 14 c14 -14 46 -17 244 -20 145 -3 208 0
218 8 20 17 18 1 -12 -97 l-25 -84 -122 -1 c-67 0 -164 0 -215 1 -50 1 -97 -2
-104 -6 -19 -12 -66 -15 -73 -4 -3 6 -25 10 -49 10 -59 0 -91 -29 -108 -100
l-13 -55 -95 0 -95 0 -3 83 c-2 60 1 84 10 87 7 3 58 7 113 9 55 3 106 6 113
7 8 2 12 24 12 73 l0 71 54 -3 c30 -2 64 1 75 7 18 10 21 9 21 -11 1 -22 1
-22 16 5 15 27 25 33 38 20z m-734 -113 l-7 -85 -1 95 c-1 52 2 90 7 85 4 -6
5 -48 1 -95z m-502 30 l-3 -50 33 0 32 0 0 -55 0 -55 65 0 65 0 0 55 0 55 35
0 35 0 0 50 0 50 100 0 100 0 0 -270 0 -270 -106 0 -106 0 3 112 4 111 -33 1
-32 1 0 -56 0 -56 -70 1 -70 0 0 56 0 55 -32 -1 c-28 -1 -33 -5 -34 -25 0 -13
-1 -63 -2 -111 l-2 -88 -106 0 -107 0 6 78 c3 42 12 164 18 270 l13 192 99 0
99 0 -4 -50z m992 23 c0 -16 3 -38 6 -50 l6 -23 -133 0 -134 0 7 -117 c3 -65
7 -138 7 -163 l1 -45 135 3 135 4 0 -30 c0 -16 3 -44 6 -61 l7 -31 -240 0
-240 0 -6 143 c-4 78 -7 199 -7 270 l0 127 225 0 225 0 0 -27z m-198 -544
c146 0 204 4 215 13 14 11 15 7 12 -30 -3 -23 -1 -42 3 -42 5 0 8 -5 8 -11 0
-5 -3 -8 -8 -5 -4 2 -6 -13 -4 -35 3 -31 1 -39 -12 -39 -9 0 -19 -6 -21 -12
-4 -10 -58 -13 -224 -13 -121 0 -222 3 -226 6 -11 11 -15 92 -5 104 9 11 18
44 19 73 1 10 6 10 21 2 13 -7 95 -11 222 -11z"/>
<path d="M2620 1680 c34 -28 68 -41 55 -20 -3 6 -12 10 -19 10 -7 0 -21 9 -31
20 -10 11 -23 20 -29 20 -6 0 5 -14 24 -30z"/>
<path d="M973 1554 c3 -6 34 -32 69 -60 l63 -49 -33 41 c-18 23 -45 47 -60 55
-15 7 -31 15 -36 18 -5 2 -6 0 -3 -5z"/>
<path d="M935 1459 c26 -43 71 -89 87 -89 13 0 18 -7 18 -25 0 -21 5 -25 30
-25 42 0 32 14 -63 89 -44 35 -76 58 -72 50z"/>
<path d="M1360 1444 c1 -16 45 -60 81 -80 18 -10 42 -25 52 -33 9 -8 20 -12
22 -9 3 3 -25 29 -62 58 -37 29 -74 57 -80 63 -7 5 -13 6 -13 1z"/>
<path d="M1770 1521 c46 -41 60 -49 60 -32 0 11 -41 42 -80 60 -16 8 -9 -2 20
-28z"/>
<path d="M1980 1540 c0 -11 59 -44 67 -37 4 5 -50 47 -61 47 -3 0 -6 -4 -6
-10z"/>
<path d="M1687 1450 c3 -11 9 -20 14 -20 4 0 20 -11 35 -25 15 -14 33 -25 40
-25 7 0 14 -5 16 -12 3 -9 6 -9 11 -1 4 7 -17 30 -50 57 -65 51 -73 55 -66 26z"/>
<path d="M2810 2155 c15 -18 118 -67 164 -79 46 -11 26 16 -25 36 -24 9 -68
26 -98 38 -44 17 -52 18 -41 5z"/>
<path d="M271 1357 c8 -10 551 -198 556 -194 7 8 -43 34 -107 56 -36 12 -114
39 -175 60 -161 56 -287 91 -274 78z"/>
<path d="M971 786 c2 -2 103 -43 224 -90 121 -46 551 -214 955 -371 828 -323
847 -330 831 -311 -6 7 -30 21 -53 31 -24 10 -61 26 -83 36 -22 9 -78 31 -125
49 -86 32 -198 75 -235 91 -11 4 -92 36 -180 69 -88 34 -169 66 -180 71 -11 5
-132 52 -270 105 -262 101 -267 103 -460 178 -237 92 -387 146 -408 146 -11 0
-18 -2 -16 -4z"/>
</g>
</svg>
